<svg xmlns="http://www.w3.org/2000/svg" viewBox="0 0 74 74">
    <defs>
        <style>
            .cls-1{fill:none}.cls-2{fill:#3c3c3b}
        </style>
    </defs>
    <g id="review_etc_s" transform="translate(-756 -297)">
        <path id="사각형_1867" d="M0 0h74v74H0z" class="cls-1" data-name="사각형 1867" transform="translate(756 297)"/>
        <g id="그룹_3411" data-name="그룹 3411" transform="translate(756 297)">
            <path id="사각형_1868" d="M0 0h74v2H0z" class="cls-2" data-name="사각형 1868" transform="translate(0 68.1)"/>
        </g>
        <path id="패스_1625" d="M62.3 68.7c-.1-3.1-1.7-4.2-3.1-4.6a.749.749 0 0 1-.6-.7V25.6a.993.993 0 0 0-.7-1 .954.954 0 0 0-1.2.3l-3.6 3.8h-4.2l-3.8-3.8a1.063 1.063 0 0 0-1.2-.2 1.2 1.2 0 0 0-.7 1v3.6a10.637 10.637 0 0 1-6.2 9.6 16.72 16.72 0 0 0-10 14.9 17.6 17.6 0 0 0 2.3 8.9A14.279 14.279 0 0 1 19 49.1a14.022 14.022 0 0 1 5-10.8 3.825 3.825 0 0 0 1.3-2.5 3.114 3.114 0 0 0-.9-2.6l-.3-.3a3.3 3.3 0 0 0-4.6-.4A21.207 21.207 0 0 0 11.7 49a21.516 21.516 0 0 0 13.5 19.9h37.1zM13.8 48.9a19.088 19.088 0 0 1 7-14.8.844.844 0 0 1 .7-.2 1.086 1.086 0 0 1 .9.4l.3.3a1.209 1.209 0 0 1 .3 1 1.389 1.389 0 0 1-.5 1 16.308 16.308 0 0 0-5.8 12.5 16.482 16.482 0 0 0 14.9 16.3 1.149 1.149 0 0 0 1.1-.6 1.063 1.063 0 0 0-.2-1.2 13.909 13.909 0 0 1-3.5-9.7A14.535 14.535 0 0 1 37.7 41a12.824 12.824 0 0 0 7.5-11.6v-.9l2.3 2.3a1.135 1.135 0 0 0 .8.3h5.1a1.136 1.136 0 0 0 .8-.3l2-2.2v35a3.092 3.092 0 0 0 2.2 2.9 1.876 1.876 0 0 1 1.4 1.8h-7.3a20.245 20.245 0 0 0-8.7-15.7L43 54a18.664 18.664 0 0 1 7.8 14.1h-3.4L33 68a19.184 19.184 0 0 1-19.2-19.1z" class="cls-2" data-name="패스 1625" transform="translate(756 297)"/>
    </g>
</svg>
